<svg xmlns="http://www.w3.org/2000/svg" xmlns:xlink="http://www.w3.org/1999/xlink" width="215" height="55" viewBox="0 0 215 55">
    <defs>
        <filter id="prefix__b" width="103.5%" height="103.1%" x="-1.7%" y="-1.6%" filterUnits="objectBoundingBox">
            <feOffset dy="-1" in="SourceAlpha" result="shadowOffsetInner1"/>
            <feComposite in="shadowOffsetInner1" in2="SourceAlpha" k2="-1" k3="1" operator="arithmetic" result="shadowInnerInner1"/>
            <feColorMatrix in="shadowInnerInner1" values="0 0 0 0 0.721778759 0 0 0 0 0.721778759 0 0 0 0 0.721778759 0 0 0 0.5 0"/>
        </filter>
        <filter id="prefix__d" width="103.5%" height="103.1%" x="-1.7%" y="-1.6%" filterUnits="objectBoundingBox">
            <feOffset dy="-1" in="SourceAlpha" result="shadowOffsetInner1"/>
            <feComposite in="shadowOffsetInner1" in2="SourceAlpha" k2="-1" k3="1" operator="arithmetic" result="shadowInnerInner1"/>
            <feColorMatrix in="shadowInnerInner1" values="0 0 0 0 0.721778759 0 0 0 0 0.721778759 0 0 0 0 0.721778759 0 0 0 0.5 0"/>
        </filter>
        <path id="prefix__a" d="M4.102 0h20.596c1.426 0 1.943.149 2.465.427.521.28.93.689 1.21 1.21.278.522.427 1.039.427 2.465v23.796c0 1.426-.149 1.943-.427 2.465-.28.521-.689.93-1.21 1.21-.522.278-1.039.427-2.465.427H4.102c-1.426 0-1.943-.149-2.465-.427-.521-.28-.93-.689-1.21-1.21C.15 29.841 0 29.324 0 27.898V4.102C0 2.676.149 2.16.427 1.637c.28-.521.689-.93 1.21-1.21C2.159.15 2.676 0 4.102 0z"/>
        <path id="prefix__c" d="M4.102 0h20.596c1.426 0 1.943.149 2.465.427.521.28.93.689 1.21 1.21.278.522.427 1.039.427 2.465v23.796c0 1.426-.149 1.943-.427 2.465-.28.521-.689.93-1.21 1.21-.522.278-1.039.427-2.465.427H4.102c-1.426 0-1.943-.149-2.465-.427-.521-.28-.93-.689-1.21-1.21C.15 29.841 0 29.324 0 27.898V4.102C0 2.676.149 2.16.427 1.637c.28-.521.689-.93 1.21-1.21C2.159.15 2.676 0 4.102 0z"/>
    </defs>
    <g fill="none" fill-rule="evenodd">
        <g transform="rotate(-5 62.808 -39.26)">
            <use fill="#FFF" xlink:href="#prefix__a"/>
            <use fill="#000" filter="url(#prefix__b)" xlink:href="#prefix__a"/>
            <path fill="#8C8C8C" fill-rule="nonzero" d="M11.54 12.741c.21 0 .378-.062.5-.185.124-.123.185-.321.185-.594 0-.144-.022-.285-.066-.42-.043-.137-.087-.244-.131-.32H8.72l1.805-1.456c.554-.442.96-.876 1.22-1.302.259-.425.388-.868.388-1.328 0-.332-.066-.64-.198-.925-.131-.285-.325-.532-.58-.74-.254-.21-.575-.373-.962-.492-.386-.12-.83-.179-1.33-.179-.704 0-1.273.106-1.707.32-.435.212-.653.518-.653.918 0 .196.048.362.145.498.097.137.211.251.343.345.193-.128.428-.245.705-.351.277-.106.6-.16.969-.16.395 0 .698.08.909.237.21.157.316.372.316.644 0 .222-.088.458-.263.709-.176.251-.497.572-.962.964L6.94 10.558c-.14.12-.265.27-.375.453-.11.183-.165.402-.165.658 0 .476.18.834.54 1.072h4.6zm9.792-.785c.282 0 .519-.083.712-.249.193-.166.312-.398.356-.696l-1.792-2.285 1.028-1.136c.254-.273.43-.486.527-.639.096-.153.145-.327.145-.523 0-.247-.11-.447-.33-.6-.22-.153-.514-.23-.883-.23h-.092c-.035 0-.07.004-.105.013l-1.503 1.928-.949-1.239c-.088-.11-.169-.21-.244-.3-.074-.09-.153-.164-.237-.223-.083-.06-.173-.105-.27-.134-.097-.03-.211-.045-.343-.045-.272 0-.503.09-.692.268-.189.179-.314.417-.375.715l1.805 2.107c-.202.22-.4.444-.593.67-.193.225-.386.449-.58.67-.228.247-.386.44-.474.581-.088.14-.132.3-.132.479 0 .238.105.438.316.6.211.162.514.242.91.242.035 0 .079-.002.132-.006l.072-.005.06-.001 1.45-1.98.843 1.175c.175.239.353.437.533.594.18.158.416.24.705.249zM8.252 27.2c.175 0 .378-.013.606-.038l2.346-8.324c.053-.196.11-.396.171-.6.062-.205.093-.418.093-.639 0-.298-.093-.51-.277-.638-.185-.128-.435-.192-.751-.192-.088 0-.183.002-.284.007-.1.004-.213.015-.336.032l-2.333 8.324c-.044.161-.099.349-.164.561-.066.213-.1.422-.1.626 0 .306.09.53.27.67.181.14.434.211.759.211zm10.708-.88c.554 0 1.035-.071 1.443-.212.409-.14.745-.332 1.009-.574.263-.243.459-.524.586-.843.127-.319.191-.657.191-1.015 0-.357-.057-.691-.171-1.002-.114-.31-.286-.577-.514-.798-.229-.221-.51-.396-.844-.523-.334-.128-.725-.192-1.173-.192-.272 0-.503.02-.692.058-.189.038-.362.083-.52.134l.105-1.405h2.702c.22 0 .393-.068.52-.204.128-.136.192-.34.192-.613 0-.17-.022-.319-.066-.447-.044-.127-.092-.234-.145-.319h-3.849c-.333 0-.595.096-.784.287-.189.192-.296.454-.323.786l-.171 2.03c-.009.119-.013.2-.013.242v.115c0 .383.114.672.343.868.228.196.54.302.935.32.202-.094.391-.173.567-.237.176-.064.391-.096.646-.096.413 0 .718.094.916.281.197.188.296.43.296.728 0 .306-.107.562-.323.766-.215.204-.547.306-.995.306-.448 0-.819-.068-1.113-.204-.295-.136-.56-.293-.798-.472-.158.085-.303.202-.435.35-.131.15-.197.335-.197.556 0 .205.063.39.19.556.128.166.31.306.548.421.237.115.52.202.85.262.33.06.692.09 1.087.09z"/>
        </g>
        <g transform="rotate(-20 28.343 3.822)">
            <use fill="#FFF" xlink:href="#prefix__c"/>
            <use fill="#000" filter="url(#prefix__d)" xlink:href="#prefix__c"/>
            <path fill="#8C8C8C" fill-rule="nonzero" d="M11.54 12.741c.21 0 .378-.062.5-.185.124-.123.185-.321.185-.594 0-.144-.022-.285-.066-.42-.043-.137-.087-.244-.131-.32H8.72l1.805-1.456c.554-.442.96-.876 1.22-1.302.259-.425.388-.868.388-1.328 0-.332-.066-.64-.198-.925-.131-.285-.325-.532-.58-.74-.254-.21-.575-.373-.962-.492-.386-.12-.83-.179-1.33-.179-.704 0-1.273.106-1.707.32-.435.212-.653.518-.653.918 0 .196.048.362.145.498.097.137.211.251.343.345.193-.128.428-.245.705-.351.277-.106.6-.16.969-.16.395 0 .698.08.909.237.21.157.316.372.316.644 0 .222-.088.458-.263.709-.176.251-.497.572-.962.964L6.94 10.558c-.14.12-.265.27-.375.453-.11.183-.165.402-.165.658 0 .476.18.834.54 1.072h4.6zm9.792-.785c.282 0 .519-.083.712-.249.193-.166.312-.398.356-.696l-1.792-2.285 1.028-1.136c.254-.273.43-.486.527-.639.096-.153.145-.327.145-.523 0-.247-.11-.447-.33-.6-.22-.153-.514-.23-.883-.23h-.092c-.035 0-.07.004-.105.013l-1.503 1.928-.949-1.239c-.088-.11-.169-.21-.244-.3-.074-.09-.153-.164-.237-.223-.083-.06-.173-.105-.27-.134-.097-.03-.211-.045-.343-.045-.272 0-.503.09-.692.268-.189.179-.314.417-.375.715l1.805 2.107c-.202.22-.4.444-.593.67-.193.225-.386.449-.58.67-.228.247-.386.44-.474.581-.088.14-.132.3-.132.479 0 .238.105.438.316.6.211.162.514.242.91.242.035 0 .079-.002.132-.006l.072-.005.06-.001 1.45-1.98.843 1.175c.175.239.353.437.533.594.18.158.416.24.705.249zM8.252 27.2c.175 0 .378-.013.606-.038l2.346-8.324c.053-.196.11-.396.171-.6.062-.205.093-.418.093-.639 0-.298-.093-.51-.277-.638-.185-.128-.435-.192-.751-.192-.088 0-.183.002-.284.007-.1.004-.213.015-.336.032l-2.333 8.324c-.044.161-.099.349-.164.561-.066.213-.1.422-.1.626 0 .306.09.53.27.67.181.14.434.211.759.211zm10.708-.88c.554 0 1.035-.071 1.443-.212.409-.14.745-.332 1.009-.574.263-.243.459-.524.586-.843.127-.319.191-.657.191-1.015 0-.357-.057-.691-.171-1.002-.114-.31-.286-.577-.514-.798-.229-.221-.51-.396-.844-.523-.334-.128-.725-.192-1.173-.192-.272 0-.503.02-.692.058-.189.038-.362.083-.52.134l.105-1.405h2.702c.22 0 .393-.068.52-.204.128-.136.192-.34.192-.613 0-.17-.022-.319-.066-.447-.044-.127-.092-.234-.145-.319h-3.849c-.333 0-.595.096-.784.287-.189.192-.296.454-.323.786l-.171 2.03c-.009.119-.013.2-.013.242v.115c0 .383.114.672.343.868.228.196.54.302.935.32.202-.094.391-.173.567-.237.176-.064.391-.096.646-.096.413 0 .718.094.916.281.197.188.296.43.296.728 0 .306-.107.562-.323.766-.215.204-.547.306-.995.306-.448 0-.819-.068-1.113-.204-.295-.136-.56-.293-.798-.472-.158.085-.303.202-.435.35-.131.15-.197.335-.197.556 0 .205.063.39.19.556.128.166.31.306.548.421.237.115.52.202.85.262.33.06.692.09 1.087.09z"/>
        </g>
        <path fill="#000" fill-rule="nonzero" d="M46.948 35.236c.41 0 .784-.028 1.12-.084.336-.056.597-.112.784-.168v-5.012c.336.13.71.238 1.12.322.41.084.859.126 1.344.126.99 0 1.904-.154 2.744-.462.84-.308 1.568-.765 2.184-1.372.616-.607 1.097-1.363 1.442-2.268.345-.905.518-1.946.518-3.122 0-1.232-.182-2.296-.546-3.192-.364-.896-.873-1.633-1.526-2.212-.653-.579-1.433-1.003-2.338-1.274-.905-.27-1.9-.406-2.982-.406-1.064 0-2.035.117-2.912.35-.877.233-1.596.527-2.156.882-.373.243-.663.518-.868.826-.205.308-.308.705-.308 1.19v13.86c0 .784.187 1.316.56 1.596.373.28.98.42 1.82.42zm3.724-8.204c-.373 0-.71-.042-1.008-.126-.299-.084-.579-.2-.84-.35v-6.58c.261-.13.55-.247.868-.35.317-.103.69-.154 1.12-.154.952 0 1.694.29 2.226.868.532.579.798 1.53.798 2.856 0 1.288-.275 2.25-.826 2.884-.55.635-1.33.952-2.338.952zm16.632 3.388c1.083 0 2.063-.168 2.94-.504.877-.336 1.629-.812 2.254-1.428.625-.616 1.106-1.367 1.442-2.254.336-.887.504-1.88.504-2.982 0-1.083-.173-2.063-.518-2.94-.345-.877-.83-1.629-1.456-2.254-.625-.625-1.377-1.106-2.254-1.442-.877-.336-1.848-.504-2.912-.504-1.064 0-2.04.168-2.926.504-.887.336-1.643.812-2.268 1.428-.625.616-1.11 1.367-1.456 2.254-.345.887-.518 1.871-.518 2.954 0 1.12.168 2.123.504 3.01.336.887.817 1.638 1.442 2.254.625.616 1.381 1.087 2.268 1.414.887.327 1.871.49 2.954.49zm0-3.36c-.896 0-1.582-.322-2.058-.966-.476-.644-.714-1.591-.714-2.842 0-1.213.243-2.147.728-2.8s1.167-.98 2.044-.98 1.559.331 2.044.994c.485.663.728 1.591.728 2.786 0 1.232-.238 2.175-.714 2.828s-1.162.98-2.058.98zm15.82-11.956c.71 0 1.39-.27 2.044-.812l1.344-1.176c.43-.355.742-.658.938-.91.196-.252.294-.565.294-.938 0-.485-.196-.882-.588-1.19-.392-.308-.915-.471-1.568-.49l-2.52 2.436-1.092-1.176c-.243-.243-.453-.443-.63-.602-.177-.159-.345-.285-.504-.378-.159-.093-.308-.154-.448-.182-.14-.028-.294-.042-.462-.042-.56 0-.97.191-1.232.574-.261.383-.392.798-.392 1.246v.224c0 .075.01.13.028.168l2.128 1.932c.299.28.565.504.798.672.233.168.453.303.658.406.205.103.401.168.588.196.187.028.392.042.616.042zm.728 15.316c1.325 0 2.361-.215 3.108-.644.747-.43 1.12-.999 1.12-1.708 0-.392-.089-.723-.266-.994-.177-.27-.425-.527-.742-.77-.317.168-.705.331-1.162.49-.457.159-.985.238-1.582.238-1.045 0-1.909-.308-2.59-.924-.681-.616-1.022-1.55-1.022-2.8 0-1.25.355-2.198 1.064-2.842.71-.644 1.568-.966 2.576-.966.56 0 1.069.075 1.526.224.457.15.854.317 1.19.504.224-.205.415-.448.574-.728.159-.28.238-.588.238-.924 0-.71-.369-1.297-1.106-1.764-.737-.467-1.75-.7-3.038-.7-.99 0-1.932.15-2.828.448-.896.299-1.68.747-2.352 1.344-.672.597-1.204 1.344-1.596 2.24-.392.896-.588 1.95-.588 3.164 0 1.176.177 2.207.532 3.094.355.887.859 1.629 1.512 2.226s1.442 1.045 2.366 1.344c.924.299 1.946.448 3.066.448zm9.52-15.148l2.632-2.24c.41-.355.7-.663.868-.924.168-.261.252-.588.252-.98 0-.485-.22-.91-.658-1.274-.439-.364-1.087-.555-1.946-.574l-2.8 3.052c-.243.261-.406.485-.49.672-.084.187-.126.383-.126.588 0 .43.191.817.574 1.162.383.345.947.518 1.694.518zm-.252 14.952c.41 0 .784-.028 1.12-.084.336-.056.597-.103.784-.14V18.464c0-.784-.182-1.316-.546-1.596-.364-.28-.966-.42-1.806-.42-.41 0-.784.028-1.12.084-.336.056-.597.112-.784.168v11.508c0 .784.182 1.316.546 1.596.364.28.966.42 1.806.42zm10.22.196c1.27 0 2.16-.21 2.674-.63.513-.42.77-.957.77-1.61 0-.317-.056-.597-.168-.84-.112-.243-.252-.457-.42-.644-.224.093-.495.173-.812.238-.317.065-.616.098-.896.098-.597 0-1.064-.117-1.4-.35-.336-.233-.504-.611-.504-1.134v-5.432h2.828c.43 0 .78-.13 1.05-.392.27-.261.406-.69.406-1.288 0-.317-.047-.62-.14-.91-.093-.29-.187-.527-.28-.714h-3.864v-1.82c0-.765-.182-1.293-.546-1.582-.364-.29-.957-.434-1.778-.434-.392 0-.756.033-1.092.098-.336.065-.607.126-.812.182v12.572c0 1.624.439 2.795 1.316 3.514.877.719 2.1 1.078 3.668 1.078zm12.936 0c.747 0 1.433-.051 2.058-.154.625-.103 1.167-.261 1.624-.476.457-.215.817-.48 1.078-.798.261-.317.392-.69.392-1.12 0-.355-.093-.681-.28-.98-.187-.299-.42-.541-.7-.728-.43.261-.99.5-1.68.714-.69.215-1.428.322-2.212.322-.859 0-1.615-.163-2.268-.49-.653-.327-1.11-.882-1.372-1.666l7.28-1.092c.579-.093 1.027-.29 1.344-.588.317-.299.476-.747.476-1.344 0-.859-.159-1.652-.476-2.38-.317-.728-.76-1.353-1.33-1.876-.57-.523-1.25-.929-2.044-1.218-.793-.29-1.666-.434-2.618-.434-.877 0-1.731.135-2.562.406-.83.27-1.568.695-2.212 1.274-.644.579-1.157 1.307-1.54 2.184-.383.877-.574 1.913-.574 3.108 0 1.232.191 2.305.574 3.22.383.915.91 1.675 1.582 2.282s1.475 1.064 2.408 1.372c.933.308 1.95.462 3.052.462zm-3.64-8.26c.093-.933.406-1.647.938-2.142.532-.495 1.2-.742 2.002-.742.784 0 1.372.215 1.764.644.392.43.607.887.644 1.372l-5.348.868zm14.14-7.168c.71 0 1.283-.224 1.722-.672.439-.448.658-.999.658-1.652 0-.635-.22-1.176-.658-1.624-.439-.448-1.013-.672-1.722-.672-.71 0-1.288.224-1.736.672-.448.448-.672.99-.672 1.624 0 .653.224 1.204.672 1.652.448.448 1.027.672 1.736.672zM125.18 35.46c.504 0 .985-.093 1.442-.28.457-.187.863-.485 1.218-.896.355-.41.64-.929.854-1.554.215-.625.322-1.386.322-2.282V18.464c0-.784-.182-1.316-.546-1.596-.364-.28-.966-.42-1.806-.42-.41 0-.784.028-1.12.084-.336.056-.607.112-.812.168V30c0 .821-.159 1.46-.476 1.918-.317.457-.812.845-1.484 1.162.037.672.261 1.237.672 1.694.41.457.99.686 1.736.686zm12.068-5.012c1.997 0 3.51-.387 4.536-1.162 1.027-.775 1.54-1.853 1.54-3.234 0-1.12-.364-2.035-1.092-2.744-.728-.71-1.941-1.25-3.64-1.624l-1.064-.252c-.541-.13-.915-.27-1.12-.42-.205-.15-.308-.355-.308-.616 0-.355.182-.62.546-.798.364-.177.873-.266 1.526-.266.317 0 .663.028 1.036.084.373.056.728.13 1.064.224.336.093.649.196.938.308.29.112.509.215.658.308.243-.187.439-.425.588-.714.15-.29.224-.62.224-.994 0-.41-.126-.77-.378-1.078-.252-.308-.593-.565-1.022-.77-.43-.205-.943-.36-1.54-.462-.597-.103-1.232-.154-1.904-.154-1.81 0-3.253.387-4.326 1.162-1.073.775-1.61 1.825-1.61 3.15 0 1.195.373 2.123 1.12 2.786.747.663 1.885 1.153 3.416 1.47l1.12.252c.56.13.957.28 1.19.448.233.168.35.41.35.728 0 .747-.663 1.12-1.988 1.12-.915 0-1.717-.121-2.408-.364-.69-.243-1.307-.523-1.848-.84-.261.187-.476.425-.644.714-.168.29-.252.64-.252 1.05 0 .448.13.84.392 1.176.261.336.625.616 1.092.84.467.224 1.022.392 1.666.504.644.112 1.358.168 2.142.168zm14.784-15.176l2.632-2.24c.41-.355.7-.663.868-.924.168-.261.252-.588.252-.98 0-.485-.22-.91-.658-1.274-.439-.364-1.087-.555-1.946-.574l-2.8 3.052c-.243.261-.406.485-.49.672-.084.187-.126.383-.126.588 0 .43.191.817.574 1.162.383.345.947.518 1.694.518zm-.616 15.176c1.064 0 2.016-.093 2.856-.28.84-.187 1.55-.457 2.128-.812.355-.205.658-.453.91-.742.252-.29.378-.677.378-1.162v-6.328c0-.859-.154-1.605-.462-2.24-.308-.635-.742-1.157-1.302-1.568-.56-.41-1.237-.714-2.03-.91-.793-.196-1.675-.294-2.646-.294-.69 0-1.395.051-2.114.154-.719.103-1.349.257-1.89.462-.859.355-1.288.943-1.288 1.764 0 .355.08.686.238.994.159.308.35.537.574.686.541-.224 1.153-.42 1.834-.588.681-.168 1.377-.252 2.086-.252.915 0 1.615.14 2.1.42.485.28.728.719.728 1.316v.308l-3.724.392c-1.587.168-2.763.588-3.528 1.26-.765.672-1.148 1.652-1.148 2.94 0 1.512.57 2.637 1.708 3.374 1.139.737 2.67 1.106 4.592 1.106zm0-3.164c-.765 0-1.316-.13-1.652-.392-.336-.261-.504-.616-.504-1.064 0-.43.182-.751.546-.966.364-.215.845-.35 1.442-.406l2.296-.196v2.576c-.205.13-.509.238-.91.322-.401.084-.807.126-1.218.126zm27.832 2.912c.41 0 .784-.023 1.12-.07.336-.047.607-.098.812-.154v-8.82c0-.915-.154-1.694-.462-2.338-.308-.644-.714-1.167-1.218-1.568s-1.087-.69-1.75-.868c-.663-.177-1.358-.266-2.086-.266-.97 0-1.81.126-2.52.378s-1.344.565-1.904.938c-.579-.448-1.218-.78-1.918-.994-.7-.215-1.442-.322-2.226-.322-.99 0-1.937.13-2.842.392-.905.261-1.666.607-2.282 1.036-.373.261-.663.541-.868.84-.205.299-.308.69-.308 1.176v8.652c0 .784.187 1.311.56 1.582.373.27.98.406 1.82.406.41 0 .784-.023 1.12-.07.336-.047.597-.098.784-.154v-9.968c.205-.112.467-.229.784-.35.317-.121.672-.182 1.064-.182.541 0 .999.145 1.372.434.373.29.56.742.56 1.358v6.944c0 .784.182 1.311.546 1.582.364.27.966.406 1.806.406.41 0 .784-.023 1.12-.07.336-.047.607-.098.812-.154v-9.24c0-.093-.005-.187-.014-.28-.01-.093-.023-.187-.042-.28.261-.205.555-.373.882-.504.327-.13.677-.196 1.05-.196.579 0 1.036.145 1.372.434.336.29.504.742.504 1.358v6.944c0 .784.182 1.311.546 1.582.364.27.966.406 1.806.406z"/>
        <path fill="#8C8C8C" fill-rule="nonzero" d="M185.352 38.392c.597 0 1.055-.177 1.372-.532.317-.355.476-.803.476-1.344s-.159-.99-.476-1.344c-.317-.355-.775-.532-1.372-.532-.579 0-1.031.177-1.358.532-.327.355-.49.803-.49 1.344s.163.99.49 1.344c.327.355.78.532 1.358.532zm10.556 0c1.232 0 2.226-.196 2.982-.588.756-.392 1.134-.877 1.134-1.456 0-.299-.075-.55-.224-.756-.15-.205-.345-.383-.588-.532-.373.261-.812.485-1.316.672-.504.187-1.11.28-1.82.28-1.232 0-2.23-.387-2.996-1.162-.765-.775-1.148-1.9-1.148-3.374 0-.747.107-1.405.322-1.974.215-.57.504-1.05.868-1.442.364-.392.798-.686 1.302-.882.504-.196 1.055-.294 1.652-.294.71 0 1.302.093 1.778.28.476.187.91.401 1.302.644.205-.112.378-.275.518-.49.14-.215.21-.453.21-.714 0-.28-.098-.546-.294-.798-.196-.252-.471-.476-.826-.672-.355-.196-.78-.35-1.274-.462-.495-.112-1.05-.168-1.666-.168-.933 0-1.82.145-2.66.434-.84.29-1.573.723-2.198 1.302-.625.579-1.12 1.307-1.484 2.184-.364.877-.546 1.895-.546 3.052s.173 2.17.518 3.038c.345.868.826 1.591 1.442 2.17s1.349 1.008 2.198 1.288c.85.28 1.787.42 2.814.42zM212.26 38c.317 0 .574-.093.77-.28.196-.187.294-.485.294-.896 0-.243-.033-.467-.098-.672-.065-.205-.135-.364-.21-.476h-7.028l6.468-8.036c.187-.224.336-.453.448-.686.112-.233.168-.48.168-.742 0-.56-.205-.999-.616-1.316h-8.904c-.317 0-.574.093-.77.28-.196.187-.294.485-.294.896 0 .243.037.467.112.672.075.205.15.373.224.504h6.636l-6.496 8.008c-.168.205-.313.434-.434.686-.121.252-.182.509-.182.77 0 .523.196.952.588 1.288h9.324z"/>
    </g>
</svg>
