<svg xmlns="http://www.w3.org/2000/svg" width="16" height="16" viewBox="0 0 16 16">
    <g fill="none" fill-rule="evenodd">
        <path d="M0 0H16V16H0z"/>
        <path stroke="#fff" stroke-width="1.5" d="M7.823 4.237c-.045.046-.073.108-.073.177v7.172c0 .066.026.13.073.177.049.048.113.073.177.073.064 0 .128-.025.177-.073l3.586-3.586c.048-.049.073-.113.073-.177 0-.064-.025-.128-.073-.177L8.177 4.237c-.047-.046-.11-.073-.354 0zM3.788 7.03c-.024.024-.038.056-.038.091V8.88c0 .034.014.067.038.09.025.026.058.038.09.038.034 0 .067-.012.092-.037l.793-.793c.048-.049.073-.113.073-.177 0-.064-.025-.128-.073-.177L3.97 7.03c-.024-.024-.057-.037-.182 0z"/>
    </g>
</svg>
